# xmcd
#
# Track frame offsets: 
#        150
#        17385
#        34862
#        60027
#        84642
#        111305
#        126257
#        161267
#        182937
#        196080
#        220720
#        250442
#        282335
#        318925
#
# Disc length: 4441 seconds
#
# Revision: 3
# Processed by: cddbd v1.5.2PL0 Copyright (c) Steve Scherf et al.
# Submitted via: ExactAudioCopy v0.95b4
#
DISCID=b811570e
DTITLE=My Morning Jacket - At Dawn [UK - For Promotional Use Only]
DYEAR=2001
DGENRE=Southern Rock
TTITLE0=At Dawn
TTITLE1=Lowdown
TTITLE2=The Way He Sings
TTITLE3=Death Is My Sleezy Pay
TTITLE4=Hopefully
TTITLE5=Bermuda Highway
TTITLE6=Honest Man
TTITLE7=X-Mas Curtain
TTITLE8=Just Because I Do
TTITLE9=If It Smashes Down
TTITLE10=I Needed It Most
TTITLE11=Phone Went West
TTITLE12=Strangulation!
TTITLE13=[Untitled]
EXTD=
EXTT0=
EXTT1=
EXTT2=
EXTT3=
EXTT4=
EXTT5=
EXTT6=
EXTT7=
EXTT8=
EXTT9=
EXTT10=
EXTT11=
EXTT12=
EXTT13=
PLAYORDER=
